<svg xmlns="http://www.w3.org/2000/svg" xmlns:xlink="http://www.w3.org/1999/xlink" width="714" height="356"><style><![CDATA[.A{fill:#f4f4f4;stroke:#8d9ca9;stroke-width:0.633;stroke-linecap:round;stroke-linejoin:round;stroke-miterlimit:10}.B{fill:#f4f4f4;stroke:#394859;stroke-width:0.633;stroke-linecap:round;stroke-linejoin:round;stroke-miterlimit:10}.D{fill:#394859;stroke:#394859;stroke-width:0.633;stroke-linecap:round;stroke-linejoin:round;stroke-miterlimit:10}.E{fill:none;stroke:#8d9ca9;stroke-width:0.633;stroke-linecap:round;stroke-linejoin:round;stroke-miterlimit:10}.F{fill:none;stroke:#394859;stroke-width:0.633;stroke-linecap:round;stroke-linejoin:round;stroke-miterlimit:10}.G{fill:#dee1e0}.I{clip-path:url(#B);fill:#8590f6}.M{clip-path:url(#B);fill:#8fd640}.P{fill:none;stroke:#fff;stroke-width:0.633;stroke-miterlimit:10}.T{fill:#a9b1b7}.U{fill:#007a87;stroke:#007a87;stroke-width:0.633;stroke-linecap:round;stroke-linejoin:round;stroke-miterlimit:10}.V{fill:none;stroke:#007a87;stroke-width:0.633;stroke-linecap:round;stroke-linejoin:round;stroke-miterlimit:10}.W{fill:#0c2a31}.X{fill:#ff7352}.Y{fill:#8fd640}.Z{fill:none;stroke:#dee1e0;stroke-width:0.633;stroke-linecap:round;stroke-linejoin:round;stroke-miterlimit:10}.a{fill:#8d9ca9}.b{fill:#f4f4f4}.c{fill:none;stroke:#a9b1b7;stroke-width:0.633;stroke-linecap:round;stroke-linejoin:round;stroke-miterlimit:10}.d{fill:#ff7b7d}.e{fill:#394859}.g{fill:#8590f6}.h{clip-path:url(#B)}.i{stroke-miterlimit:10}.j{stroke-width:.633}.k{stroke-linejoin:round}.l{stroke-linecap:round}]]></style><path class="A" d="M396 256.7h-87.2c-2.9 0-5.2-2.3-5.2-5.2V126c0-2.9 2.3-5.2 5.2-5.2H396c2.9 0 5.2 2.3 5.2 5.2v125.5c0 2.8-2.3 5.2-5.2 5.2z"/><path class="B" d="M303.5 129.1h97.7v119.3h-97.7z"/><path class="A" d="M621.6 6.4v87.2c0 2.9-2.3 5.2-5.2 5.2H490.9c-2.9 0-5.2-2.3-5.2-5.2V6.4c0-2.9 2.3-5.2 5.2-5.2h125.5c2.9 0 5.2 2.4 5.2 5.2z"/><path class="B" d="M493.973 98.898v-97.7h119.3v97.7z"/><path class="A" d="M498.1 267.5l7 61.7h38.4l-14.7-61.7z"/><path d="M498.1 267.5l1.5 13.3 34 6.5-4.8-19.8z" fill="#8d9ca9" stroke="#8d9ca9" class="i j k"/><path class="A" d="M475.7 353.9h47.5l20.3-24.7h-38.4zm139.9-78.7H415.5a6.02 6.02 0 0 1-6-6v-157a6.02 6.02 0 0 1 6-6h200.1a6.02 6.02 0 0 1 6 6v157a6.02 6.02 0 0 1-6 6z"/><path class="D" d="M415.5 106.2h200.1a6.02 6.02 0 0 1 6 6V252h-212V112.2c-.1-3.3 2.6-6 5.9-6z"/><path class="B" d="M416.2 112.9h198.6v132.4H416.2zM255.9 224.6h-51.7v-31.7h51.7"/><path class="A" d="M198.5 194.8v27.8c0 1.1.9 2 2 2h3.8v-31.8h-3.8a1.94 1.94 0 0 0-2 2z"/><path class="A" d="M201.3 212.2v-7.1m60.3-10.3v27.8c0 1.1-.9 2-2 2h-3.8v-31.8h3.8a1.94 1.94 0 0 1 2 2z"/><path class="A" d="M259.6 211.2c0 .5-.4.9-.9.9s-.9-.4-.9-.9v-4.9c0-.5.4-.9.9-.9s.9.4.9.9v4.9z"/><path class="B" d="M267.1 218.8v-51.6h31.7v51.6"/><path class="D" d="M296.9 161.4h-27.8c-1.1 0-2 .9-2 2v3.8h31.8v-3.8c0-1.1-.9-2-2-2z"/><path class="E" d="M279.5 164.3h7.1"/><path class="D" d="M296.9 224.6h-27.8c-1.1 0-2-.9-2-2v-3.8h31.8v3.8c0 1.1-.9 2-2 2z"/><circle class="F" cx="283" cy="221.8" r="1.8"/><path class="B" d="M368 321.5v-54h33.2v54"/><path class="D" d="M399.1 261.5H370c-1.1 0-2.1.9-2.1 2.1v4h33.2v-4c.1-1.2-.8-2.1-2-2.1z"/><path class="E" d="M380.9 264.5h7.4"/><path class="D" d="M399.1 327.5H370c-1.1 0-2.1-.9-2.1-2.1v-4h33.2v4c.1 1.2-.8 2.1-2 2.1z"/><circle class="E" cx="384.6" cy="324.5" r="1.9"/><path class="B" d="M416.2 65.9H470v33.2h-53.8"/><path class="A" d="M476.2 97V68c0-1.1-.9-2.1-2.1-2.1h-4v33.2h4c1.2 0 2.1-.9 2.1-2.1z"/><path class="E" d="M473.2 78.8v7.4"/><path class="A" d="M410.2 97V68c0-1.1.9-2.1 2.1-2.1h4v33.2h-4c-1.1 0-2.1-.9-2.1-2.1z"/><circle class="E" cx="413.2" cy="82.5" r="1.9"/><path class="G" d="M180 229.3s-2.9.6-2.9 1.2 1 0 3.1.5-.2-1.7-.2-1.7z"/><path class="D" d="M295.9 231H174.5a3.01 3.01 0 0 0-3 3v100.8h127.3V234c.1-1.6-1.3-3-2.9-3z"/><path class="A" d="M265.4 353.9H138l33.5-19.1h127.4z"/><path class="A" d="M228.2 350.9h-34.3l8.5-4.8h34.2zm-43.4-13.6h90.5m-95.2 2.8H270m-95.2 2.9h90.5"/><path class="B" d="M177.1 236.6h116.2v92.6H177.1z"/><path class="A" d="M358.5 335.1h-52c-1.6 0-2.9-1.3-2.9-2.9v-67.8c0-1.6 1.3-2.9 2.9-2.9h52c1.6 0 2.9 1.3 2.9 2.9v67.8c0 1.6-1.3 2.9-2.9 2.9z"/><path class="B" d="M303.5 266.1h57.9v63.8h-57.9z"/><defs><path id="A" d="M303.5 129.1h97.7v119.3h-97.7V129.1zm309.8-30.2V1.2H494v97.7h119.3zM416.2 245.3h198.6V112.9H416.2v132.4zm-160.3-52.4h-51.7v31.7h51.7v-31.7zm11.2 25.9h31.7v-51.7h-31.7v51.7zM368 321.5h33.2v-54H368v54zM470.1 65.9h-54v33.2h54V65.9zm-293 263.3h116.2v-92.6H177.1v92.6zm126.4.7h57.9v-63.8h-57.9v63.8z"/></defs><clipPath id="B"><use xlink:href="#A"/></clipPath><path d="M45.9-131.8h786.8v496H45.9z" fill="#ff7b7d" class="h"/><path class="I" d="M45.9 227.6h253v136.6h-253z"/><path d="M11.5 91.7h253v136.6h-253z" fill="#04c99f" class="h"/><path transform="matrix(-1 0 0 -1 568.0447 320.0525)" d="M264.5 91.7h39v136.6h-39z" fill="#fb956a" class="h"/><path d="M302.7 91.7h102.6v161H302.7z" fill="#ff65be" class="h"/><path class="I" d="M626.9 237.9h102.6v161H626.9z"/><path class="M" d="M368 259.6h37.4v73.6H368z"/><path transform="matrix(-1 0 0 -1 1026.9618 355.1738)" d="M405.4 102.5h216.2v150.2H405.4z" fill="#f0bc5f" class="h"/><path class="M" d="M731 91.7h43.6v161H731z"/><g opacity=".2" class="h P"><path d="M768.3-224.7H177.4m590.9 12H177.4m590.9 12.1H177.4m590.9 12.1H177.4m590.9 12H177.4m590.9 12.1H177.4m590.9 12H177.4m590.9 12.1H177.4m590.9 12.1H177.4m590.9 12H177.4m590.9 12.1H177.4m590.9 12H177.4M768.3-80H177.4m590.9 12.1H177.4m590.9 12H177.4m590.9 12.1H177.4m590.9 12H177.4m590.9 12.1H177.4m590.9 12H177.4M768.3 4.4H177.4m590.9 12.1H177.4m590.9 12H177.4m590.9 12.1H177.4m590.9 12H177.4m590.9 12.1H177.4m590.9 12.1H177.4m590.9 26.5H177.4m590.9-2.4H177.4m590.9 12H177.4M768.3 125H177.4m590.9 12.1H177.4m590.9 12H177.4m590.9 12.1H177.4m590.9 12H177.4m590.9 12.1H177.4m590.9 12.1H177.4m590.9 12H177.4m590.9 12.1H177.4m590.9 12H177.4m590.9 12.1H177.4m590.9 12.1H177.4m590.9 12H177.4m590.9 12.1H177.4m590.9 12H177.4m590.9 12.1H177.4M768.3 318H177.4m590.9 12H177.4m590.9 12.1H177.4m590.9 12H177.4m590.9 12.1H177.4"/><path d="M768.3 366.2v-590.9m-12.1 590.9v-590.9m-12 590.9v-590.9m-12.1 590.9v-590.9M720 366.2v-590.9m-12 590.9v-590.9m-12.1 590.9v-590.9m-12 590.9v-590.9m-12.1 590.9v-590.9m-12.1 590.9v-590.9m-12 590.9v-590.9m-12.1 590.9v-590.9m-12 590.9v-590.9m-12.1 590.9v-590.9m-12.1 590.9v-590.9m-12 590.9v-590.9m-12.1 590.9v-590.9m-12 590.9v-590.9m-12.1 590.9v-590.9m-12.1 590.9v-590.9m-12 590.9v-590.9M515 366.2v-590.9m-12 590.9v-590.9m-12.1 590.9v-590.9m-12.1 590.9v-590.9m-12 590.9v-590.9m-12.1 590.9v-590.9m-12 590.9v-590.9m-12.1 590.9v-590.9m-12.1 590.9v-590.9m-12 590.9v-590.9m-12.1 590.9v-590.9m-12 590.9v-590.9m-12.1 590.9v-590.9m-12.1 590.9v-590.9m-12 590.9v-590.9m-12.1 590.9v-590.9m-12 590.9v-590.9M310 366.2v-590.9m-12.1 590.9v-590.9m-12 590.9v-590.9m-12.1 590.9v-590.9m-12 590.9v-590.9m-12.1 590.9v-590.9m-12.1 590.9v-590.9m-12 590.9v-590.9m-12.1 590.9v-590.9m-12 590.9v-590.9m-12.1 590.9v-590.9m-12.1 590.9v-590.9"/></g><g fill="none" stroke-width="2.532" class="h i k l"><path d="M171.5 321.2l104.2-110.8 47.7 70.6 20.1-116.7 39.7 140.8 66.6-122.3 14.9 13 8.7-13.2 10.9 11.6 25.3-46.2 25 26.3 52.8-139.9 48.2 51.8 32.5-69.7 21.2 165 20.1-28.4 8.4 10.1L775.9 95" stroke="#fff"/><path d="M163.6 300.8s10.7-35 47.6-46.8 32.4-61.6 73.6-61.6c25.5 0 42.5 34.4 58.2 34.4s25.5-35.6 42.3-35.6 18.4 28.8 45.2 28.8 27.1-60 44.2-61.4c9.4-.8 12.6 14.8 22.8 14.6 21.6-.4 19-123 46-123 15.4 0 14 32.4 34.6 32.4 26.5 0 24.3-81.3 69.5-81.3C675.5 1.3 792 85.5 792 85.5" stroke="#394859"/></g><use xlink:href="#A" fill="none" stroke="#8d9ca9" class="i j"/><path class="G" d="M112 215.3c.2-1.6.6-12.3.6-12.3l-4.4-1.6s-1.3 2-2.2 7c-.2 1.3-.8 2.1-.8 2.1s6.7 5.9 6.8 4.8z"/><path class="T" d="M106.4 203s.4-3.4 1.9.8c.9 2.5 4.1 6.3 4.1 6.3l.3-4.8-1.7-3.1-4.7.1.1.7z"/><path class="G" d="M113.4 191.6c-3.8-.1-6.7 2.3-6.8 6.5 0 1 .8 2.5.9 2.6.5 2.6 1.1 3.3 2.7 4.5 1.7 1.2 3.8 2.2 5.5 1.8 2.4-.5 2-4.6 2-4.6s.9-.3 1-.8c.1-.4 0-.5-.3-1-.6-.8-.7-1.7-.8-2.5-.5-3.6-.8-6.4-4.2-6.5z"/><path class="U" d="M104.8 195.7s-2.3.4-1.7 3.1c.4 1.5 1.2 2.4 1.2 2.4l-.1-2.6c0-1.5.6-2.9.6-2.9z"/><path class="V" d="M105.7 201.1s-.2-.7.3-1.1c.4-.4.9-.2.9-.2"/><path class="W" d="M106.4 206.4c3.7-1.3 1.1-4.3 1.1-4.3s.8-2.6 1.1-2.6c1.4.3 1.8-.9 2.2-2.4.4-1.2.1-3 .1-3s2.8-.9 5.9.6c0 0 .1.1.2.6.2.9.3 1.8.3 1.8 1.6-.2 2.4-2.7 1.6-4.9-.7-2-3.4-3.2-5-3.1-2.3.2-4.3 1.3-4.3 1.3s-1.5-.4-2.8-.3c-3.8.4-7.5 3.2-6.5 9.2.2 1.7 2.6 2.8 4.3 4.3 1.1 1 1.8 2.8 1.8 2.8z"/><path class="G" d="M108.6 199.6s-.6-.4-1.4-.3c-1.1.1-1.7 1-1.5 2 .1 1 .9 1.6 2 1.5.9-.1 1.2-.8 1.2-.8"/><path class="X" d="M105.1,220.4"/><path class="G" d="M103.4 246.3s-5.9 10.9-3.2 19.1c2.8 8.8 13.2 29.6 13.2 29.6s-1.2 4.1.6 14.8c1.4 8.2 9.7 38.2 9.7 38.2h3.4l-5.8-51.9c-1.1-7.9-4.7-49.8-4.7-49.8h-13.2z"/><path class="W" d="M123.1 354.8H136c1.8 0 2.2-1.6-.4-1.9-3.1-.4-4.7-.8-6.3-1.8-1.6-1.1-2.2-3-2.2-3h-3.4l-.6 6.7z"/><path class="G" d="M103.9 246.3s-5.8 7.7-5.9 19.1c-.1 8.8 1.7 29.6 1.7 29.6s-2.6 4.1-3.6 14.8L93 348h3.4l11-51.7c1-7.9 2.8-6.9 8-37.3l1.1-12.7h-12.6z"/><path class="W" d="M103.9 246.3s-5.8 7.7-5.9 19.1c-.1 8.8 1.7 29.6 1.7 29.6h21.6l-4.7-48.7h-12.7"/><path class="Y" d="M116.7 221.6l1.8 9.6-4.1-17.8s3.3-1.1 3.1 0l7.3 17.9c1.6 3.7-2.5 9.7-8 3l.4-4.3-.5-8.4z"/><path class="Z" d="M118.1 207.9v-1.7l-.2-1.5m-3 7.5l1-4.3m3 .7l.3-1.7-.7-1.7"/><path class="Z" d="M119.1 209.9l.9-2.1-1.3-2.1m.6 5l.8-1.5.5-1.5"/><path class="G" d="M114.6 211.7l3.3-4.4 2.2 3.4-3 3.4c-.7.5-1.7.4-2.3-.2-.7-.7-.7-1.6-.2-2.2z"/><path class="Y" d="M99.6 221.4c3.1 16.4 4.3 24.9 4.3 24.9h12.6s.4-10.5 1-13.9c1.5-8.4.6-11.4-4.5-18.9-3.7-5.5-15.7-4.2-13.4 7.9z"/><path class="Y" d="M106 228.4l-1.3 9.8 18.7 9.2s-.8 2.5-1.8 2.1c0 0-14.3-2.9-20.7-5.4-2.5-1-3.4-3.5-3.3-5l1.6-22.7 6.8 12z"/><path class="Z" d="M125.9 254l1.4.6m-.9-1.1l2.5 1.1 2.2-.2m-4.3-1.8l2.9 1 1.6.2m-3.4-2l1.8.8 1.2-.8"/><path class="G" d="M121.6 250.1l4.1 4.5 2.8-3.1-4.4-3.9c-.7-.5-1.7-.4-2.3.3-.7.6-.7 1.5-.2 2.2z"/><path class="W" d="M92.4 354.8h12.9c1.8 0 2.6-1.6.1-1.9-3-.4-4.5-.8-5.9-1.8-1.3-1.1-3.2-3-3.2-3H93l-.6 6.7zm477.8-156.2s0 7.9-3.4 10.3c-3.4 2.3-4.7 3-4.1 5.9.8 3.6 5.8 3.2 5.8 3.2l8.1-9.6-6.4-9.8z"/><path class="X" d="M577,219.7"/><path class="A" d="M567.6 349.2l-1.1-6.2 4.6-.1 1 6.4z"/><path class="a" d="M578.7 245.6s1.3 8-1.4 16.2c-2.8 8.8-12.4 32.8-12.4 32.8s1.2 4.1 3 12.8c2.9 14.4 4.1 37.3 4.1 37.3l-5.4.4-9.9-41.1c-1.5-5.4-2.3-10.5-1.2-16 3-15.2 10-42.5 10-42.5l13.2.1z"/><path class="W" d="M573.3 354h-12.9c-1.8 0-2.6-1.6-.1-1.9 3-.4 4.5-.8 5.9-1.8 1.3-1.1.9-3 .9-3h5.2l1 6.7z"/><path class="A" d="M579.9 349.1l-.6-6.1 4.6-.1.5 6.3z"/><path class="a" d="M581 245.6s.6 7.8 1.9 19.1c2.1 19.7 1.8 80 1.8 80l-5.4-.1s-2.2-40.6-11.5-86.8v-12.1l13.2-.1z"/><path class="T" d="M565 225.3l-4.3 8.4-9.7-17.5s-3 2.5-1.9 2.8l7.9 20.8c1 3.6 4.5 3.3 7.2-.5l6.9-9.2-6.1-4.8z"/><path class="b" d="M569.9 215l-6.7 13c.1.2 7.8 3.3 7.8 3.3s5.8-8.8 7.2-13.6c.4-1.3.8-2.8.1-4-2.6-4.2-7-1.4-8.4 1.3z"/><path class="c" d="M544 217.8l-1.5-.8-.9-1.7m8.1.7l-4.1-1.5m-1.3 4.3l-1.7-.5-1.2-1.4m4 2.6l-2.3-.1-1.3-2m4.2 2.7l-2.1.9-1.6-.3"/><path class="T" d="M549.4 215.5l-5.7 1.8 1.9 3.7 4.9-2.2c.8-.4 1.2-1.4.8-2.2-.3-.8-1.1-1.3-1.9-1.1z"/><path class="d" d="M584.2 220.7l.1 24.9h-18.8s-.4-10.5-1-13.9c-1.5-8.4-1.1-11.9 4.5-18.9 2-2.5 7.1-3.4 10.6-3 2.9.3 4.5 5.4 4.6 10.9z"/><path class="G" d="M577 226.2l1.5 11.2-19.9 5.5s.8 2.5 1.8 2.1c0 0 13.1-.8 20.9-1.8 2.7-.3 3.4-2.6 3.3-4.1l-1.3-16.4-6.3 3.5z"/><path class="d" d="M574.3 217.8c.1 5.6 2.4 8.2 2.6 8.4l6.5-1.4s2.6-4.5 1.1-9.3c-.4-1.3-1.8-3.7-3.1-4.2-4.4-2.2-7.1 3.5-7.1 6.5z"/><path class="Z" d="M556.1 249.6l-1.3.6m.8-1.1l-2.5 1.1-2.2-.2m4.4-1.8l-3 1.1-1.6.2m3.5-2.1l-1.8.8-1.3-.8"/><path class="G" d="M560.5 245.7l-4.1 4.5-2.8-3.1 4.4-3.9c.7-.5 1.7-.4 2.3.3.6.6.7 1.5.2 2.2z"/><path class="W" d="M585 354h-12.9c-1.8 0-2.6-1.6-.1-1.9 3-.4 4.5-.8 5.9-1.8 1.3-1.1 1.4-3 1.4-3h5.2l.5 6.7z"/><path class="G" d="M571.8 212.7c-.2-1.6-.6-11.4-.6-11.4l4.4-1.6s1.1 5.4 2.5 8.4c.3.6.5 1.6.5 1.6s-6.6 4.1-6.8 3z"/><path class="T" d="M577.5 201.3s-.4-3.4-1.9.8c-.9 2.5-4.1 6.3-4.1 6.3l-.3-4.8 1.7-3.1 4.7.1-.1.7z"/><path class="G" d="M570.5 189.9c3.8-.1 6.7 2.3 6.8 6.5 0 1-.8 2.5-.9 2.6-.5 2.6-1.1 3.3-2.7 4.5-1.7 1.2-3.8 2.2-5.5 1.8-2.4-.5-2-4.6-2-4.6s-.9-.3-1-.8c-.1-.4 0-.5.3-1 .6-.8.7-1.7.8-2.5.5-3.5.8-6.4 4.2-6.5z"/><path class="U" d="M579 194s2.3.4 1.7 3.1c-.4 1.5-1.2 2.4-1.2 2.4l.1-2.6c.1-1.5-.6-2.9-.6-2.9z"/><path class="V" d="M578.2 199.4s.2-.7-.3-1.1c-.4-.4-.9-.2-.9-.2"/><path class="W" d="M564.9 190.5c.8-2 3.5-3.2 5-3.1 2.3.2 4.4 1.3 4.4 1.3s1.5-.4 2.8-.3c3.8.4 7.5 3.3 6.5 9.3-1.1 6.6 4.6 4.8 3.2 10.9-1.2 5.4-7.1 4.1-8.9 2.8-6.8-5.2-1.6-11-1.6-11s-.8-2.6-1.1-2.6c-1.4.3-1.8-.9-2.2-2.4-.4-1.2-.1-3-.1-3s-2.8-.9-5.9.6c0 0-.1.1-.2.6-.2.9-.3 1.8-.3 1.8-1.6-.1-2.5-2.7-1.6-4.9z"/><path class="G" d="M575.2 197.9s.6-.4 1.4-.3c1.1.1 1.7 1 1.5 2-.1 1-.9 1.6-2 1.5-.9-.1-1.2-.8-1.2-.8"/><path class="W" d="M412.8 354h18.8s.6-1.3-2.6-2.2-5.3-1.4-6.3-2.7c-.9-1.3-.6-4.3-.6-4.3h-7.8l-1.5 9.2z"/><path class="W" d="M429.3 354h21s1.1-1.3-2-2.2-8.7-1.4-9.6-2.7c.4.5-.3-6.2-.6-4.3h-7.8l-1 9.2z"/><path class="e" d="M421.1 249.1c.1 27.1-.8 36.9-3.7 64.8-2.4 23.4-4.3 36.1-4.3 36.1s3.3-2.3 4.4-2.7c1-.4 4.5-.3 4.5-.3s7.2-30.6 8.5-42.4c1.8-16.4 4.3-35 4.7-55.4h-14.1z"/><path class="e" d="M443.8 249.1c-.3 23.4-.1 23.5-1.5 56.3-.8 19.3-3.7 42.3-3.7 42.3l-9 3.2 1.2-45.7c.2-18-.1-17.9-2.1-56.1h15.1z"/><path class="X" d="M428,212.3"/><path d="M431.6,203" fill="#ffb400" stroke="#007a87" class="i j k l"/><path class="e" d="M427 203.7l.9-11.6 3.3-.5v4.4l4.1 2.4.3 6.8"/><path class="W" d="M431.4 193.9s-2.2-2.7-1.3 1.8c.2 1.1 5.4 7 5.4 7l-.2-4.3-2.1-3-.5-2.2-1.3.7z"/><path class="e" d="M435.4 184.4c-3.7 0-6.4 2.4-6.4 6.5 0 1 .9 2.4.9 2.5.5 2.5 1.1 3.3 2.7 4.2 2.2 1.3 3.7 2 5.4 1.6 2.3-.5 1.9-5 1.9-5s.8-.3.9-.8c.1-.3 0-.5-.3-.9-.6-.8-.7-1.6-.9-2.4-.5-3.5-.9-5.7-4.2-5.7z"/><path class="W" d="M424.5 184.4c1.9-2.1 10.4-5.1 13.5-2.3 1.1 1 1.1 2.8.3 3.3-1 .5-3.1 1.1-5.3 1.1-1.2 0-1.7.7-1.3 1.3 1.7 2.5-.4 4.5-1.5 4.4l.1-1c-.4-2.2-.1.4-.3 1.8 0 0 .1 1.6-.5 2.3-1.6 2-2.1 2.4-2.1 2.4-2.8-4.9-6.7-9.1-2.9-13.3z"/><path class="e" d="M430.3 193.2c-.9.1-1.7-.6-1.8-1.6s.5-1.9 1.4-2 1.6.6 1.7 1.6v1.1"/><path class="g" d="M433.9 204c-1.9-.3-7.7-.7-7.7-.7-2.1 1.3-4.8 3-6.1 4.3-2.2 2.2-2.5 5.2-2.5 16.1 0 10.5 3 15.1 3.6 32.3 0 0 5.9-2.2 14 1 10.2 4 8.7-2.4 8.7-2.4s1.5-27.8-2.7-40.8c-2.2-6.5-3.7-9.2-7.3-9.8z"/><path class="g" d="M423.7 259.7L413.1 240c-1.3-2.7-1.7-5.8-1.1-8.8l6.5-21.3 9.6 5.9-6.8 18.5 7.8 21.5-5.4 3.9z"/><path class="F" d="M475.8 229l3.2-1.8 2-2.2m-4.3 2.8l2.1-1.4 2.3-1.8m-5.3 2.2l3.7-1.6 1.3-1.2m-4.9 1.4l3.1-1.1 1.1-.7m-7.5 2.1l3.4-2.1"/><path class="e" d="M470.3 229.3l5.8.2-.1-4.8-6 1c-.9.2-1.5 1.1-1.3 2 .1.9.8 1.6 1.6 1.6z"/><path class="g" d="M470.5 225.6c-.4.2-19.3 2.5-19.3 2.5l-12.2-20c-1.7-2.6-8.6-3.3-10.6 2.3-.5 1.3-.2 4 .3 5.3 2 4.8 16.3 20.6 16.3 20.6.9 1.3 2.5 1.9 4 1.5 5.1-1.4 17.7-3.8 21.6-5.2 1.1-.4-.1-7-.1-7z"/><path class="b" d="M426.1 203.8l.5-1.6 7.3 1.8-1.3 3.4zm11.2 1.8l-.5-1.6h-2.9l1.3 3.4z"/></svg>